<svg xmlns="http://www.w3.org/2000/svg" xmlns:xlink="http://www.w3.org/1999/xlink" width="500" zoomAndPan="magnify" viewBox="0 0 375 374.999991" height="500" preserveAspectRatio="xMidYMid meet" version="1.0"><defs><g/></defs><path stroke-linecap="butt" transform="matrix(0.672451, -0.33213, 0.33213, 0.672451, 104.151444, 51.015045)" fill="none" stroke-linejoin="miter" d="M 0.00139873 2.998986 L 153.30435 3.002588 " stroke="#89d0c0" stroke-width="6" stroke-opacity="1" stroke-miterlimit="4"/><path stroke-linecap="butt" transform="matrix(0, 0.75, -0.75, 0, 209.150748, 2.120939)" fill="none" stroke-linejoin="miter" d="M 0.000206178 2.997873 L 228.338763 2.997873 " stroke="#89d0c0" stroke-width="6" stroke-opacity="1" stroke-miterlimit="4"/><path stroke-linecap="butt" transform="matrix(0.677234, -0.322264, 0.322264, 0.677234, 104.181149, 112.271784)" fill="none" stroke-linejoin="miter" d="M -0.0000919089 3.001731 L 216.25248 3.000374 " stroke="#89d0c0" stroke-width="6" stroke-opacity="1" stroke-miterlimit="4"/><path stroke-linecap="butt" transform="matrix(0.672329, -0.332375, 0.332375, 0.672329, 104.150652, 81.655279)" fill="none" stroke-linejoin="miter" d="M 0.00102198 2.999922 L 124.24151 3.002051 " stroke="#89d0c0" stroke-width="6" stroke-opacity="1" stroke-miterlimit="4"/><path stroke-linecap="butt" transform="matrix(-0.000355996, -0.75, 0.75, -0.000355996, 103.902163, 83.672315)" fill="none" stroke-linejoin="miter" d="M -0.000837025 3.000241 L 43.645006 3.000125 " stroke="#89d0c0" stroke-width="6" stroke-opacity="1" stroke-miterlimit="4"/><path stroke-linecap="butt" transform="matrix(0.749609, 0.0242092, -0.0242092, 0.749609, 187.572619, 40.129773)" fill="none" stroke-linejoin="miter" d="M 0.0000250961 3.000408 L 87.092329 3.001665 " stroke="#89d0c0" stroke-width="6" stroke-opacity="1" stroke-miterlimit="4"/><path stroke-linecap="butt" transform="matrix(0.721378, 0.205215, -0.205215, 0.721378, 105.763752, 112.140249)" fill="none" stroke-linejoin="miter" d="M 0.000535633 3.000268 L 204.660053 3.001292 " stroke="#89d0c0" stroke-width="6" stroke-opacity="1" stroke-miterlimit="4"/><path stroke-linecap="butt" transform="matrix(0.676899, -0.322967, 0.322967, 0.676899, 157.186093, 126.790244)" fill="none" stroke-linejoin="miter" d="M 0.00187031 2.999964 L 139.793925 2.999729 " stroke="#89d0c0" stroke-width="6" stroke-opacity="1" stroke-miterlimit="4"/><path stroke-linecap="butt" transform="matrix(0, -0.75, 0.75, 0, 250.529431, 156.298951)" fill="none" stroke-linejoin="miter" d="M -0.00244095 3.002425 L 96.841315 3.002425 " stroke="#89d0c0" stroke-width="6" stroke-opacity="1" stroke-miterlimit="4"/><path stroke-linecap="butt" transform="matrix(-0.0208497, -0.74971, 0.74971, -0.0208497, 155.904414, 173.431849)" fill="none" stroke-linejoin="miter" d="M -0.00234709 2.998333 L 59.395608 2.998535 " stroke="#89d0c0" stroke-width="6" stroke-opacity="1" stroke-miterlimit="4"/><path stroke-linecap="butt" transform="matrix(0.75, 0, 0, 0.75, 156.917161, 168.760463)" fill="none" stroke-linejoin="miter" d="M 0.00107647 3.001675 L 68.428164 3.001675 " stroke="#89d0c0" stroke-width="6" stroke-opacity="1" stroke-miterlimit="4"/><g fill="#000000" fill-opacity="1"><g transform="translate(19.841884, 363.760636)"><g><path d="M 3.59375 -23.203125 L 10.171875 -23.203125 C 12.703125 -23.203125 14.898438 -22.765625 16.765625 -21.890625 C 18.640625 -21.023438 20.085938 -19.75 21.109375 -18.0625 C 22.140625 -16.375 22.65625 -14.320312 22.65625 -11.90625 C 22.65625 -9.4375 22.175781 -7.316406 21.21875 -5.546875 C 20.257812 -3.773438 18.914062 -2.40625 17.1875 -1.4375 C 15.457031 -0.476562 13.4375 0 11.125 0 L 3.59375 0 Z M 6.859375 -2.609375 L 11.125 -2.609375 C 13.707031 -2.609375 15.710938 -3.375 17.140625 -4.90625 C 18.578125 -6.445312 19.296875 -8.585938 19.296875 -11.328125 C 19.296875 -14.222656 18.53125 -16.488281 17 -18.125 C 15.476562 -19.769531 13.25 -20.59375 10.3125 -20.59375 L 6.859375 -20.59375 Z M 6.859375 -2.609375 "/></g></g></g><g fill="#000000" fill-opacity="1"><g transform="translate(43.963749, 363.760636)"><g/></g></g><g fill="#000000" fill-opacity="1"><g transform="translate(52.445423, 363.760636)"><g><path d="M 6.859375 -10.6875 L 6.859375 -2.6875 L 18.890625 -2.6875 L 18.890625 0 L 3.59375 0 L 3.59375 -23.203125 L 18.28125 -23.203125 L 18.28125 -20.515625 L 6.859375 -20.515625 L 6.859375 -13.328125 L 18.390625 -13.328125 L 18.390625 -10.6875 Z M 6.859375 -10.6875 "/></g></g></g><g fill="#000000" fill-opacity="1"><g transform="translate(73.2764, 363.760636)"><g/></g></g><g fill="#000000" fill-opacity="1"><g transform="translate(81.758074, 363.760636)"><g><path d="M 10.921875 -3.96875 L 17.90625 -23.203125 L 21.09375 -23.203125 L 12.171875 0.203125 L 9.15625 0.203125 L 0.75 -23.203125 L 4.109375 -23.203125 Z M 10.921875 -3.96875 "/></g></g></g><g fill="#000000" fill-opacity="1"><g transform="translate(103.606859, 363.760636)"><g/></g></g><g fill="#000000" fill-opacity="1"><g transform="translate(112.088533, 363.760636)"><g><path d="M 6.859375 -10.6875 L 6.859375 -2.6875 L 18.890625 -2.6875 L 18.890625 0 L 3.59375 0 L 3.59375 -23.203125 L 18.28125 -23.203125 L 18.28125 -20.515625 L 6.859375 -20.515625 L 6.859375 -13.328125 L 18.390625 -13.328125 L 18.390625 -10.6875 Z M 6.859375 -10.6875 "/></g></g></g><g fill="#000000" fill-opacity="1"><g transform="translate(132.91951, 363.760636)"><g/></g></g><g fill="#000000" fill-opacity="1"><g transform="translate(141.401184, 363.760636)"><g><path d="M 6.859375 -23.203125 L 6.859375 -2.6875 L 18.140625 -2.6875 L 18.140625 0 L 3.59375 0 L 3.59375 -23.203125 Z M 6.859375 -23.203125 "/></g></g></g><g fill="#000000" fill-opacity="1"><g transform="translate(160.026935, 363.760636)"><g/></g></g><g fill="#000000" fill-opacity="1"><g transform="translate(168.508609, 363.760636)"><g><path d="M 24.359375 -11.640625 C 24.359375 -9.890625 24.066406 -8.28125 23.484375 -6.8125 C 22.910156 -5.34375 22.109375 -4.066406 21.078125 -2.984375 C 20.046875 -1.898438 18.828125 -1.054688 17.421875 -0.453125 C 16.023438 0.140625 14.503906 0.4375 12.859375 0.4375 C 10.597656 0.4375 8.613281 -0.0664062 6.90625 -1.078125 C 5.195312 -2.097656 3.859375 -3.515625 2.890625 -5.328125 C 1.929688 -7.140625 1.453125 -9.242188 1.453125 -11.640625 C 1.453125 -13.304688 1.742188 -14.863281 2.328125 -16.3125 C 2.921875 -17.757812 3.734375 -19.03125 4.765625 -20.125 C 5.796875 -21.226562 7.003906 -22.082031 8.390625 -22.6875 C 9.785156 -23.300781 11.273438 -23.609375 12.859375 -23.609375 C 15.179688 -23.609375 17.203125 -23.113281 18.921875 -22.125 C 20.640625 -21.144531 21.972656 -19.753906 22.921875 -17.953125 C 23.878906 -16.160156 24.359375 -14.054688 24.359375 -11.640625 Z M 4.890625 -11.640625 C 4.890625 -9.890625 5.253906 -8.296875 5.984375 -6.859375 C 6.722656 -5.429688 7.710938 -4.296875 8.953125 -3.453125 C 10.203125 -2.617188 11.59375 -2.203125 13.125 -2.203125 C 14.707031 -2.203125 16.082031 -2.570312 17.25 -3.3125 C 18.414062 -4.0625 19.320312 -5.109375 19.96875 -6.453125 C 20.613281 -7.804688 20.9375 -9.382812 20.9375 -11.1875 C 20.9375 -13.113281 20.585938 -14.804688 19.890625 -16.265625 C 19.203125 -17.722656 18.253906 -18.867188 17.046875 -19.703125 C 15.835938 -20.546875 14.441406 -20.96875 12.859375 -20.96875 C 11.222656 -20.96875 9.804688 -20.585938 8.609375 -19.828125 C 7.410156 -19.066406 6.488281 -17.988281 5.84375 -16.59375 C 5.207031 -15.207031 4.890625 -13.554688 4.890625 -11.640625 Z M 4.890625 -11.640625 "/></g></g></g><g fill="#000000" fill-opacity="1"><g transform="translate(194.326805, 363.760636)"><g/></g></g><g fill="#000000" fill-opacity="1"><g transform="translate(202.808489, 363.760636)"><g><path d="M 3.59375 -23.203125 L 10.890625 -23.203125 C 13.628906 -23.203125 15.710938 -22.640625 17.140625 -21.515625 C 18.578125 -20.398438 19.296875 -18.769531 19.296875 -16.625 C 19.296875 -15.019531 18.921875 -13.632812 18.171875 -12.46875 C 17.429688 -11.300781 16.40625 -10.40625 15.09375 -9.78125 C 13.78125 -9.164062 12.265625 -8.859375 10.546875 -8.859375 L 6.859375 -8.859375 L 6.859375 0 L 3.59375 0 Z M 6.859375 -11.5 L 11.125 -11.5 C 12.570312 -11.5 13.726562 -11.9375 14.59375 -12.8125 C 15.46875 -13.695312 15.90625 -14.785156 15.90625 -16.078125 C 15.90625 -17.484375 15.460938 -18.582031 14.578125 -19.375 C 13.703125 -20.164062 12.492188 -20.5625 10.953125 -20.5625 L 6.859375 -20.5625 Z M 6.859375 -11.5 "/></g></g></g><g fill="#000000" fill-opacity="1"><g transform="translate(223.232354, 363.760636)"><g/></g></g><g fill="#000000" fill-opacity="1"><g transform="translate(231.714018, 363.760636)"><g><path d="M 6.65625 0 L 3.59375 0 L 3.59375 -23.203125 L 8.515625 -23.203125 L 13.96875 -7.9375 C 14.175781 -7.375 14.398438 -6.757812 14.640625 -6.09375 C 14.878906 -5.425781 15.078125 -4.875 15.234375 -4.4375 L 15.296875 -4.4375 C 15.453125 -4.875 15.65625 -5.441406 15.90625 -6.140625 C 16.15625 -6.835938 16.359375 -7.4375 16.515625 -7.9375 L 21.875 -23.203125 L 26.765625 -23.203125 L 26.765625 0 L 23.71875 0 L 23.71875 -20.046875 L 23.640625 -20.046875 C 23.484375 -19.523438 23.300781 -19.003906 23.09375 -18.484375 C 22.894531 -17.960938 22.707031 -17.441406 22.53125 -16.921875 L 16.3125 0 L 13.84375 0 L 7.796875 -16.921875 C 7.617188 -17.460938 7.4375 -17.988281 7.25 -18.5 C 7.070312 -19.007812 6.894531 -19.523438 6.71875 -20.046875 L 6.65625 -20.046875 Z M 6.65625 0 "/></g></g></g><g fill="#000000" fill-opacity="1"><g transform="translate(262.078386, 363.760636)"><g/></g></g><g fill="#000000" fill-opacity="1"><g transform="translate(270.560069, 363.760636)"><g><path d="M 6.859375 -10.6875 L 6.859375 -2.6875 L 18.890625 -2.6875 L 18.890625 0 L 3.59375 0 L 3.59375 -23.203125 L 18.28125 -23.203125 L 18.28125 -20.515625 L 6.859375 -20.515625 L 6.859375 -13.328125 L 18.390625 -13.328125 L 18.390625 -10.6875 Z M 6.859375 -10.6875 "/></g></g></g><g fill="#000000" fill-opacity="1"><g transform="translate(291.391046, 363.760636)"><g/></g></g><g fill="#000000" fill-opacity="1"><g transform="translate(299.87273, 363.760636)"><g><path d="M 19.09375 -4.40625 L 19.09375 -23.203125 L 22.15625 -23.203125 L 22.15625 0 L 18.390625 0 L 6.65625 -19.53125 L 6.65625 0 L 3.59375 0 L 3.59375 -23.203125 L 7.625 -23.203125 Z M 19.09375 -4.40625 "/></g></g></g><g fill="#000000" fill-opacity="1"><g transform="translate(325.623081, 363.760636)"><g/></g></g><g fill="#000000" fill-opacity="1"><g transform="translate(334.104745, 363.760636)"><g><path d="M 0.515625 -23.203125 L 20.515625 -23.203125 L 20.515625 -20.59375 L 12.140625 -20.59375 L 12.140625 0 L 8.890625 0 L 8.890625 -20.59375 L 0.515625 -20.59375 Z M 0.515625 -23.203125 "/></g></g></g><g fill="#000000" fill-opacity="1"><g transform="translate(18.079925, 320.937541)"><g><path d="M 74.980469 -15.589844 C 71.246094 -12.882812 63.773438 -9.792969 54.882812 -9.792969 C 34.398438 -9.792969 16.878906 -26.410156 16.878906 -47.539062 C 16.878906 -67.382812 32.722656 -85.546875 55.011719 -85.546875 C 63.386719 -85.546875 71.503906 -82.582031 77.816406 -78.074219 C 78.71875 -77.300781 79.621094 -77.042969 80.265625 -77.042969 C 81.039062 -77.042969 81.808594 -77.558594 82.453125 -78.589844 L 85.289062 -83.226562 C 85.546875 -83.613281 85.675781 -84.128906 85.675781 -84.644531 C 85.675781 -87.867188 76.914062 -91.859375 72.535156 -93.535156 C 66.996094 -95.726562 61.066406 -96.882812 54.882812 -96.882812 C 27.699219 -96.882812 5.667969 -74.722656 5.667969 -47.667969 C 5.667969 -20.484375 27.570312 1.417969 54.753906 1.417969 C 65.964844 1.417969 76.140625 -1.933594 84.128906 -7.859375 L 84.386719 -8.117188 C 85.804688 -9.019531 86.191406 -9.921875 86.191406 -10.820312 L 86.191406 -39.421875 C 86.191406 -41.226562 84.773438 -42.257812 83.226562 -42.257812 L 77.816406 -42.257812 C 75.882812 -42.257812 74.980469 -41.226562 74.980469 -39.421875 Z M 74.980469 -15.589844 "/></g></g></g><g fill="#000000" fill-opacity="1"><g transform="translate(111.619156, 320.937541)"><g/></g></g><g fill="#000000" fill-opacity="1"><g transform="translate(146.602628, 320.937541)"><g><path d="M 10.4375 -2.835938 C 10.4375 -0.902344 11.335938 0 13.269531 0 L 18.679688 0 C 20.613281 0 21.515625 -0.902344 21.515625 -2.835938 L 21.515625 -36.074219 L 45.738281 -36.074219 C 62.355469 -36.074219 75.109375 -49.859375 75.109375 -65.707031 C 75.109375 -81.9375 62.226562 -95.597656 45.351562 -95.597656 L 13.398438 -95.597656 C 11.464844 -95.597656 10.4375 -94.566406 10.4375 -92.503906 Z M 64.03125 -65.835938 C 64.03125 -55.785156 55.527344 -47.023438 45.351562 -47.023438 L 21.515625 -47.023438 L 21.515625 -84.644531 L 45.351562 -84.644531 C 55.785156 -84.644531 64.03125 -75.753906 64.03125 -65.835938 Z M 64.03125 -65.835938 "/></g></g></g><g fill="#000000" fill-opacity="1"><g transform="translate(257.72181, 320.937541)"><g><path d="M 49.601562 -47.667969 L 80.007812 -92.375 C 80.652344 -93.277344 80.910156 -94.050781 80.910156 -94.566406 C 80.910156 -95.339844 80.007812 -95.597656 78.332031 -95.597656 L 72.019531 -95.597656 C 69.957031 -95.597656 68.925781 -94.953125 67.253906 -92.761719 L 43.03125 -57.203125 L 19.066406 -92.761719 C 17.394531 -94.953125 16.492188 -95.597656 14.816406 -95.597656 L 7.859375 -95.597656 C 6.183594 -95.597656 5.28125 -95.339844 5.28125 -94.4375 C 5.28125 -93.921875 5.539062 -93.277344 6.183594 -92.375 C 14.558594 -80.265625 25.894531 -63.644531 36.589844 -47.667969 L 6.054688 -2.835938 C 5.539062 -2.0625 5.28125 -1.546875 5.28125 -1.03125 C 5.28125 -0.386719 5.796875 0 7.085938 0 L 14.945312 0 C 16.492188 0 17.652344 -0.773438 18.808594 -2.320312 L 43.03125 -38.265625 L 67.382812 -2.320312 C 68.410156 -0.773438 69.699219 0 71.246094 0 L 78.976562 0 C 80.265625 0 80.910156 -0.386719 80.910156 -1.03125 C 80.910156 -1.546875 80.652344 -2.191406 80.136719 -2.835938 Z M 49.601562 -47.667969 "/></g></g></g></svg>